# xmcd
#
# Track frame offsets:
#	150
#	17570
#	32025
#	51817
#	69990
#	87542
#	104847
#	126152
#	143195
#	164505
#	184352
#	201147
#	215305
#	235600
#
# Disc length: 3368 seconds
#
# Revision: 1
# Processed by: cddbd v1.5.2PL0 Copyright (c) Steve Scherf et al.
# Submitted via: audiograbber 1.83.01
#
DISCID=ca0d260e
DTITLE=Nando Menezes - Preciso de Deus
DYEAR=1900
DGENRE=Sertanejo
TTITLE0=Preciso de Deus
TTITLE1=Transformacao
TTITLE2=Retorno
TTITLE3=Peticao
TTITLE4=Preciso de um Missionario
TTITLE5=A Voz de Deus
TTITLE6=Despedida da Igreja
TTITLE7=Nossa Vitoria
TTITLE8=Vamos Embora
TTITLE9=Ele vive
TTITLE10=Filho Aprovado
TTITLE11=Crente Exaltado
TTITLE12=Ha Poder no Sangue
TTITLE13=Cruz pesada
EXTD=
EXTT0=
EXTT1=
EXTT2=
EXTT3=
EXTT4=
EXTT5=
EXTT6=
EXTT7=
EXTT8=
EXTT9=
EXTT10=
EXTT11=
EXTT12=
EXTT13=
PLAYORDER=
